<?xml version="1.0" encoding="UTF-8" standalone="no"?>
<svg xmlns="http://www.w3.org/2000/svg" width="200" height="70" viewBox="0 0 200 70" fill="none">
  <!-- The 'e' with green square and red line -->
  <rect x="10" y="25" width="20" height="20" rx="3" fill="#00C853"/>
  <line x1="12" y1="35" x2="28" y2="35" stroke="#FF0000" stroke-width="2" stroke-linecap="round"/>
  
  <!-- The 'm' -->
  <path d="M40 30C42 30 44 31 44 35V45H38V37C38 35 37 35 36 35C35 35 34 35 34 37V45H28V37C28 35 27 35 26 35C25 35 24 35 24 37V45H18V30H24V32C25 30 27 30 29 30C31 30 33 31 34 33C35 31 37 30 40 30Z" fill="white"/>
  
  <!-- The 'b' -->
  <path d="M64 30C68 30 72 33 72 38C72 43 68 46 64 46C62 46 60 45 58 43V55H52V30H58V33C60 31 62 30 64 30ZM62 40C64 40 66 39 66 38C66 37 64 36 62 36C60 36 58 37 58 38C58 39 60 40 62 40Z" fill="white"/>
  
  <!-- The 'u' -->
  <path d="M86 30C88 30 90 31 91 33V30H97V45H91V42C90 44 88 45 86 45C82 45 78 42 78 37C78 32 82 30 86 30ZM88 39C86 39 84 38 84 37C84 36 86 35 88 35C90 35 92 36 92 37C92 38 90 39 88 39Z" fill="white"/>
  
  <!-- The 's' -->
  <path d="M108 30C112 30 116 31 116 35C116 37 114 39 111 39L116 45H109L105 40H104V45H98V30H108ZM104 36H108C109 36 110 36 110 35C110 34 109 34 108 34H104V36Z" fill="white"/>
</svg>